# xmcd CD database file
#
# Track frame offsets:
#	150
#	54677
#	104257
#	147077
#	195217
#	255145
#	269342
#	280865
#
# Disc length: 4369 seconds
#
# Revision: 2
# Processed by: cddbd v1.5.2PL0 Copyright (c) Steve Scherf et al.
# Submitted via: CDex 1.70beta2
#
DISCID=68110f08
DTITLE=ツインビーPARADISE3 - ツインビーPARADISE3 Vol.3
DYEAR=1996
DGENRE=Anime
TTITLE0=第3話 「ティーンエイジは甘酸っぱくて」 part1「パステルにバストタッチ」
TTITLE1=第3話 「ティーンエイジは甘酸っぱくて」 part2「濡れた人物は二人いた」
TTITLE2=第3話 「ティーンエイジは甘酸っぱくて」 part3「プール掃除をするヒーロー」
TTITLE3=第3話 「ティーンエイジは甘酸っぱくて」 part4「一番大切なモノ」
TTITLE4=ツイパラA級リスナー養成講座
TTITLE5=「合言葉はBee!」
TTITLE6=ツイパラ選挙管理委員会
TTITLE7=ハッピーどんぶり島句　其の参
EXTD=YEAR: 1996
EXTT0=
EXTT1=
EXTT2=
EXTT3=
EXTT4=
EXTT5=
EXTT6=
EXTT7=
PLAYORDER=
